<?xml version="1.0" encoding="UTF-8"?>
<svg id="Layer_2" data-name="Layer 2" xmlns="http://www.w3.org/2000/svg" viewBox="0 0 652.17 579.53">
  <defs>
    <style>
      .cls-1 {
        fill: #fff;
      }

      .cls-2 {
        fill: #abd935;
      }
    </style>
  </defs>
  <g id="Layer_1-2" data-name="Layer 1">
    <g>
      <path class="cls-2" d="M199.48,448.12c-7.44-11.25-7.18-24.24,2.63-33.07,8.37-7.54,25.21-8.66,32.67,2.04l54.66,78.49c20.6-32.44,41.86-63.49,64.98-93.94,4.77-6.28,10.29-10.65,17.13-11.39,7.42-.8,16.83.98,20.98,7.92l43.3,72.4c23.46-41.82,47.41-81.2,75.45-119.28,30.95-42.03,64-81.59,102.67-116.18,9.42-8.43,25.12-4.51,32.16,3.35,8.42,9.4,7.93,23.22-.6,32.85-33.6,37.95-63.11,78.28-91.01,120.79-36.69,55.89-67.5,114.37-94.9,175.14-3.52,7.82-11.68,11.81-18.97,11.99-8.06.19-16.27-4.13-19.9-12.25l-45.59-101.84c-20.16,32.17-39.37,63.81-56.67,97.36-4.63,8.99-11.62,15.22-20.86,16.41-9.04,1.17-20.87-1.41-25.81-10.19-23.08-41.02-46.03-80.88-72.33-120.62Z"/>
      <path class="cls-2" d="M91.99,537.91l122.83.15,22.99,41.48-150.13-.72c-47.16-1.92-82.68-41.07-87.68-87.13L.64,91.45C.71,42.8,41.85,4,88.72.19l273.98-.19.12,43.11-270.99.02c-26.44,1.93-49.45,23.27-49.44,50.7l.04,394.27c0,26.94,23.49,48.06,49.56,49.8Z"/>
      <path class="cls-2" d="M438.12,139.51c-29.77,1.01-53.1-21.6-53.63-50.74l.41-81.23,130.53,131.6-77.31.38Z"/>
      <polygon class="cls-2" points="522.9 291.97 480.68 345.52 480.52 159.11 522.88 159.12 522.9 291.97"/>
      <path class="cls-1" d="M358.32,170.98l-173.64.12c-7.43,0-11.99-6.31-12.43-12.43-.4-5.59,3.55-13.85,11.02-13.85l173.8-.04c7.12,0,11.71,6.05,12.26,11.82.51,5.4-3.09,14.38-11.01,14.39Z"/>
      <path class="cls-1" d="M357.34,266.1h-173.71c-7.38,0-11.48-7.63-11.41-13.47.07-6.06,4.74-12.92,12.17-12.92h172.75c7.33,0,12.18,6.79,12.26,12.92s-4,13.47-12.06,13.47Z"/>
      <path class="cls-1" d="M323.63,365.08l-139.26.09c-7.46,0-11.86-6.69-12.2-12.82s4.54-13.7,12.33-13.7l139.43.06c6.94,0,11.61,7.48,11.8,12.52.24,6.23-3.98,13.86-12.1,13.86Z"/>
      <path class="cls-2" d="M115.43,179.22c-11.59-.23-20.1-9.48-21.01-19.32-1-10.89,5.77-21.43,16.85-23.75,13.12-2.75,24.73,6.38,26.11,19,1.33,12.17-7.75,24.35-21.95,24.07Z"/>
      <path class="cls-2" d="M113.02,274.03c-9.98-1.3-16.9-9.08-18.3-17.47-1.5-8.95,2.2-18.01,10.4-22.92s18.63-3.41,25.57,3.02c6.66,6.17,8.81,15.93,4.73,25.09-3.4,7.63-11.81,13.66-22.4,12.28Z"/>
      <path class="cls-2" d="M116.66,373.25c-12.09.53-21.36-9.08-22.22-19.73-.87-10.67,5.86-21.15,17.14-23.33,12.48-2.42,23.59,6.04,25.47,17.61,2.02,12.39-6.2,24.82-20.39,25.45Z"/>
    </g>
  </g>
</svg>