<svg xmlns="http://www.w3.org/2000/svg" viewBox="360 260 560 510">
  <rect x="360" y="260" width="560" height="510" fill="#100F18" rx="60"/>
<path fill="#100F18" opacity="1.000000" stroke="none" 
	d="
M839.000000,1255.000000 
	C559.333313,1255.000000 280.166656,1255.000000 1.000000,1255.000000 
	C1.000000,837.000000 1.000000,419.000000 1.000000,1.000000 
	C419.000000,1.000000 837.000000,1.000000 1255.000000,1.000000 
	C1255.000000,419.000000 1255.000000,837.000000 1255.000000,1255.000000 
	C1116.500000,1255.000000 978.000000,1255.000000 839.000000,1255.000000 
M672.904968,307.287903 
	C672.841858,307.078156 672.778748,306.868378 672.688538,305.765167 
	C672.499878,294.826752 672.311279,283.888306 671.996155,272.431213 
	C671.669189,272.388763 671.342224,272.346313 670.083862,272.179443 
	C596.869629,272.171051 523.655396,272.140869 450.441284,272.228180 
	C447.275543,272.231964 444.111084,273.316925 440.202728,273.962799 
	C439.458282,274.005157 438.713837,274.047516 437.613861,273.833588 
	C437.052246,274.177795 436.490631,274.521973 435.282867,274.947784 
	C434.850861,274.990479 434.418854,275.033173 433.389557,274.821503 
	C432.907318,275.177551 432.425079,275.533630 431.288879,275.970398 
	C430.853363,276.022614 430.417877,276.074799 429.348389,275.948334 
	C428.574738,276.316437 427.801056,276.684570 426.277649,276.949493 
	C397.337952,286.944946 374.703613,317.912537 374.891907,347.942627 
	C374.873932,437.651215 374.841736,527.359802 374.849335,617.068420 
	C374.850983,636.368652 374.996429,655.668823 374.932556,675.822083 
	C377.347900,708.366394 399.981354,736.007629 432.390381,745.857849 
	C434.822327,746.269653 437.244873,746.963318 439.687897,747.045166 
	C451.155365,747.429199 462.628082,747.859863 474.099609,747.879211 
	C503.386017,747.928711 532.672791,747.768005 562.822693,747.903015 
	C564.900757,747.903015 566.978882,747.903015 570.091370,747.903015 
	C564.349915,737.562744 558.948792,728.253662 553.997314,718.711243 
	C552.030518,714.920776 549.618042,713.752808 545.417908,713.774292 
	C514.448303,713.933044 483.477173,713.869202 452.506836,713.779236 
	C431.428467,713.718018 412.731506,697.806885 410.673828,677.283997 
	C410.781067,676.466125 410.982208,675.648315 410.982300,674.830444 
	C410.996124,567.644531 411.000854,460.458618 410.937897,353.272736 
	C410.937012,351.761871 410.078094,350.251556 409.499634,347.890411 
	C410.537018,343.374176 411.044067,338.651001 412.710510,334.380249 
	C417.841675,321.230225 428.111603,313.474152 441.810394,308.775970 
	C443.872559,308.518402 445.934723,308.260834 448.606995,308.571899 
	C449.916229,308.714325 451.225403,308.981079 452.534668,308.981445 
	C524.463684,309.001740 596.392761,309.006378 668.321716,308.955780 
	C669.876160,308.954681 671.430115,308.293518 672.904968,307.287903 
M762.224548,802.125122 
	C757.613586,801.426575 758.075256,804.636536 758.075073,807.501709 
	C758.072021,856.928589 758.117554,906.355591 757.985962,955.782166 
	C757.972656,960.791138 760.467773,960.799255 764.881897,960.217773 
	C767.250549,960.162048 769.619141,960.106384 772.701660,960.289062 
	C775.470703,960.204346 778.239746,960.119629 781.845703,960.212463 
	C783.972717,959.802307 786.099670,959.392151 788.966736,958.731689 
	C789.310242,957.359253 789.952515,955.987122 789.953918,954.614319 
	C790.002441,905.815796 790.004578,857.017273 789.919434,808.218811 
	C789.916992,806.819092 788.899109,805.421204 788.029602,803.511414 
	C787.715637,803.282776 787.401733,803.054199 786.431335,802.299561 
	C778.633911,802.310547 770.836548,802.321533 762.224548,802.125122 
M782.545166,538.667969 
	C783.377075,537.451782 784.208984,536.235535 785.606689,534.669617 
	C789.408264,529.785706 793.209839,524.901794 797.585693,519.688232 
	C799.642090,517.112793 801.698486,514.537415 803.938965,511.505249 
	C803.938965,511.505249 803.822021,511.026978 803.961914,510.095581 
	C803.961914,474.465851 803.961914,438.836090 803.961914,403.016174 
	C792.282837,403.016174 780.892761,403.016174 769.612549,403.016174 
	C769.612549,453.946960 769.612549,504.541168 769.612549,556.311707 
	C772.692505,551.906799 775.056458,548.525940 777.817627,544.917419 
	C778.040833,544.688232 778.163513,544.414001 778.732666,543.752686 
	C779.823853,542.170471 780.915039,540.588318 782.000000,539.000000 
	C782.000000,539.000000 782.006470,539.005859 782.545166,538.667969 
M524.591248,469.011566 
	C517.970642,471.666382 515.190857,475.998718 516.308472,481.920563 
	C517.362854,487.507355 521.564087,490.634064 528.501648,490.640228 
	C574.000916,490.680695 619.500244,490.681702 664.999512,490.656860 
	C672.555054,490.652740 676.881165,487.492584 677.919678,481.494934 
	C678.879944,475.949005 675.807678,471.483704 668.710083,467.934937 
	C667.467712,467.625275 666.225525,467.046112 664.982849,467.044861 
	C619.768127,466.999359 574.553406,466.992523 529.338745,467.080170 
	C527.952759,467.082855 526.568848,468.145752 524.591248,469.011566 
M1063.146851,956.203613 
	C1063.187500,921.544495 1063.165527,886.884949 1063.352417,852.226624 
	C1063.374390,848.148315 1062.001587,847.013916 1058.149292,847.229248 
	C1053.333740,847.498291 1048.488892,847.226440 1043.656738,847.225037 
	C1035.432251,847.222717 1035.436890,847.235046 1035.145386,855.652832 
	C1035.108398,856.721130 1034.991333,857.786682 1034.849731,859.675171 
	C1023.799683,848.163147 1011.054321,843.408203 995.154968,844.941833 
	C975.415955,846.669800 960.785339,856.479980 952.323547,874.149048 
	C942.733276,894.174561 943.406433,914.680847 953.915649,934.232788 
	C968.391846,961.165100 1006.333008,968.987915 1029.397217,950.260742 
	C1031.246460,948.759216 1032.952515,947.081299 1035.065308,945.178955 
	C1035.065308,949.817993 1035.270386,953.818787 1035.027710,957.792297 
	C1034.221802,970.986633 1025.260620,980.895996 1012.186829,983.061279 
	C995.930115,985.753723 981.458679,982.120972 969.286560,970.621399 
	C968.464294,969.844604 967.527954,969.188538 966.048828,967.995850 
	C960.868286,974.062195 955.729126,979.909302 950.888367,985.993835 
	C950.362549,986.654663 951.112488,989.240295 952.036011,989.988586 
	C956.285339,993.431213 960.508179,997.091492 965.283813,999.665833 
	C981.581848,1008.451294 999.229187,1010.137390 1017.208557,1007.516541 
	C1045.487183,1003.394348 1062.408081,984.373962 1063.146851,956.203613 
M855.451416,556.969055 
	C872.123169,535.972351 888.747620,514.937805 905.496033,494.002441 
	C910.410095,487.859833 911.773743,478.944885 908.112305,471.970612 
	C904.236511,464.588196 897.761169,461.336487 889.625977,461.469971 
	C883.488098,461.570679 878.644836,464.533997 874.237366,468.748260 
	C826.820801,514.085754 787.608398,565.870605 753.743713,621.857056 
	C746.600464,633.666626 739.779297,645.670959 732.614624,657.919128 
	C731.577881,656.382690 730.702209,655.210754 729.956604,653.961243 
	C719.715271,636.796936 709.468140,619.636108 699.272034,602.444946 
	C691.699097,589.676697 675.987244,588.565430 666.982422,600.427979 
	C658.223999,611.966003 649.546448,623.579895 641.258301,635.456970 
	C631.454163,649.506348 622.105042,663.873352 612.320923,678.457092 
	C611.293274,677.134521 610.341064,676.025574 609.515564,674.829224 
	C596.181580,655.505005 582.883667,636.155701 569.508179,616.860229 
	C568.294678,615.109680 566.791931,613.444824 565.105286,612.156860 
	C557.565613,606.399475 547.164062,606.868042 540.247864,613.109436 
	C533.217957,619.453369 532.306091,629.933838 537.573975,638.684204 
	C556.895447,670.778015 576.255249,702.851257 595.204712,735.164551 
	C600.006958,743.353455 606.316467,747.845520 615.641968,747.789429 
	C625.052429,747.732910 631.491638,742.858765 635.888794,734.691833 
	C642.911743,721.647827 649.935547,708.594849 657.372620,695.785767 
	C665.376465,682.000610 673.856812,668.492126 682.532593,654.198425 
	C683.648865,656.489380 684.409729,657.941345 685.076355,659.435303 
	C696.338013,684.674194 707.682800,709.876648 718.783813,735.186096 
	C722.202698,742.980835 727.485229,747.844177 736.181213,747.753662 
	C744.814026,747.663940 750.096985,742.786011 753.559265,735.043213 
	C781.512573,672.530212 815.026062,613.181030 855.451416,556.969055 
M227.473831,916.154480 
	C232.177658,929.473999 236.963623,942.765442 241.521744,956.134644 
	C242.534454,959.105042 243.884537,960.437134 247.182938,960.317444 
	C254.004379,960.069946 260.849609,960.026367 267.667358,960.315735 
	C271.172607,960.464539 272.657532,959.087891 273.740051,955.952881 
	C280.095001,937.549622 286.612732,919.202515 293.092926,900.842529 
	C294.314606,897.381165 295.614594,893.947449 297.347351,889.222412 
	C305.208191,912.322510 312.656219,933.882019 319.807068,955.539612 
	C321.024078,959.225708 322.735229,960.511353 326.521484,960.336853 
	C332.839020,960.045654 339.191833,959.987854 345.504486,960.317017 
	C349.417572,960.521118 350.929962,958.945190 352.203461,955.430298 
	C362.908234,925.884949 373.840942,896.422302 384.672119,866.922668 
	C386.940826,860.743591 389.073761,854.514709 391.470306,847.740479 
	C389.491119,847.549011 388.074799,847.301086 386.657135,847.293396 
	C379.327423,847.253723 371.990845,847.458130 364.670288,847.196411 
	C361.182465,847.071716 359.788086,848.355530 358.769897,851.615845 
	C351.725922,874.171509 344.465942,896.659729 337.261810,919.165283 
	C336.898041,920.301697 336.409790,921.398315 335.750214,923.107788 
	C335.221497,921.890320 334.988495,921.453857 334.837067,920.990723 
	C327.281372,897.881531 319.673950,874.789001 312.251465,851.637085 
	C311.229523,848.449402 309.902832,847.004883 306.346924,847.192871 
	C300.533386,847.500244 294.682373,847.439819 288.863739,847.172974 
	C285.734833,847.029419 284.506073,848.298096 283.599762,851.100464 
	C280.887451,859.487000 277.839233,867.764099 275.016083,876.115662 
	C269.826630,891.467224 264.704285,906.841431 259.214539,923.218689 
	C258.357544,920.942444 257.791748,919.643311 257.373413,918.298218 
	C250.513840,896.242737 243.601822,874.203064 236.899353,852.099854 
	C235.812546,848.515869 234.274338,846.976379 230.331680,847.154175 
	C223.183716,847.476501 216.009445,847.195007 208.846329,847.217407 
	C207.275925,847.222351 205.706223,847.444580 203.464081,847.619019 
	C211.537964,870.689880 219.364548,893.054077 227.473831,916.154480 
M659.660828,827.500305 
	C659.661743,820.501465 659.607788,813.502075 659.688721,806.504150 
	C659.724426,803.416504 658.681030,801.977539 655.309692,802.074402 
	C647.983337,802.284973 640.645569,802.275146 633.316589,802.137329 
	C630.158691,802.077942 628.886169,803.041199 628.891785,806.399780 
	C628.974915,856.223572 628.974731,906.047607 628.907349,955.871521 
	C628.903015,959.078003 629.894226,960.361450 633.204956,960.289734 
	C640.366394,960.134644 647.543762,960.053223 654.695557,960.370850 
	C658.852478,960.555420 659.833496,958.841187 659.743530,955.089478 
	C659.547852,946.929016 659.640503,938.760498 659.699402,930.595947 
	C659.709839,929.150269 659.613770,927.219299 660.443909,926.346191 
	C664.507324,922.072449 668.867615,918.080811 673.257690,913.859924 
	C684.109497,928.470764 694.620117,942.446655 704.888245,956.598450 
	C706.892639,959.360962 709.008423,960.405273 712.322449,960.330200 
	C720.983276,960.133972 729.650940,960.250793 738.315552,960.196899 
	C739.701782,960.188293 741.086487,959.943542 743.572021,959.700256 
	C726.839417,937.482605 710.760864,916.133484 693.645569,893.407715 
	C709.020386,878.190796 724.275391,863.092407 739.619019,847.906372 
	C739.075378,847.708801 738.475464,847.302368 737.874084,847.300232 
	C727.376587,847.262939 716.876770,847.172363 706.383545,847.388855 
	C704.830322,847.420837 703.001709,848.650757 701.818726,849.841309 
	C689.605530,862.133545 677.487915,874.520935 665.375122,886.912537 
	C663.711914,888.613953 662.221069,890.483704 660.650452,892.275513 
	C660.322021,892.007751 659.993652,891.740051 659.665222,891.472290 
	C659.665222,870.481628 659.665222,849.491028 659.660828,827.500305 
M398.341461,921.122192 
	C400.753906,929.568054 404.648468,937.207031 410.746704,943.608582 
	C426.609589,960.260376 446.485718,964.950134 468.371124,961.707458 
	C521.988220,953.763184 530.085449,895.929504 507.650208,866.973633 
	C487.106079,840.458557 441.148224,836.231445 415.249451,859.310608 
	C396.726410,875.817017 392.714233,896.876282 398.341461,921.122192 
M823.838196,944.659241 
	C839.387024,960.084412 858.466614,964.571289 879.472229,961.833740 
	C931.283203,955.081421 942.582642,898.671692 920.140137,868.399780 
	C906.257690,849.674316 886.776550,843.277649 864.389587,844.588135 
	C847.802185,845.559204 833.193726,851.774414 822.232544,864.579346 
	C802.602417,887.511475 803.255676,920.947388 823.838196,944.659241 
M690.393677,285.719269 
	C690.377136,305.050781 690.315369,324.382416 690.355469,343.713806 
	C690.406982,368.527863 708.432800,386.544250 733.336426,386.654541 
	C751.667969,386.735718 770.000122,386.690735 788.331970,386.701355 
	C791.272766,386.703064 794.213623,386.701599 797.154419,386.701599 
	C797.337341,386.307465 797.520264,385.913361 797.703186,385.519226 
	C761.846558,350.358887 725.989929,315.198547 690.409668,280.309235 
	C690.409668,281.217621 690.409668,283.006775 690.393677,285.719269 
M583.993713,877.204468 
	C591.261047,873.588318 598.878479,872.322144 606.763794,874.480591 
	C610.029663,875.374634 611.088074,874.455261 611.043762,871.315613 
	C610.980225,866.818115 611.022400,862.319275 611.009338,857.820984 
	C610.970459,844.455933 608.984985,842.868835 595.389099,845.325806 
	C595.061951,845.385010 594.742065,845.483276 594.416077,845.550354 
	C583.776062,847.739746 576.026611,854.033508 569.455872,864.254150 
	C569.455872,859.183960 569.304626,855.584229 569.500183,852.003418 
	C569.681152,848.688232 568.730225,847.126953 565.053650,847.235168 
	C557.896484,847.446106 550.725403,847.360901 543.564636,847.197815 
	C540.552368,847.129333 539.445740,848.191284 539.450562,851.242554 
	C539.505920,886.229736 539.506653,921.217163 539.396973,956.204163 
	C539.385986,959.705017 540.893982,960.385986 543.937988,960.312805 
	C550.765137,960.148438 557.607178,960.018494 564.425537,960.300354 
	C568.567139,960.471619 569.921082,959.166504 569.871460,954.934998 
	C569.674072,938.110291 569.703552,921.280151 569.883118,904.454590 
	C570.001038,893.406860 573.455688,883.840881 583.993713,877.204468 
M607.499695,412.612396 
	C626.823425,412.602325 646.147278,412.634888 665.470764,412.561615 
	C673.400024,412.531494 678.127441,408.257782 678.021973,401.512238 
	C677.920776,395.037384 673.188293,390.992462 665.526001,390.978119 
	C643.370483,390.936707 621.214905,390.932587 599.059326,390.929138 
	C575.237915,390.925446 551.416443,390.909607 527.595154,390.962646 
	C520.187927,390.979156 515.792908,395.479431 516.183044,402.383972 
	C516.549805,408.877319 521.098938,412.615967 529.038635,412.628448 
	C554.858887,412.669067 580.679260,412.624664 607.499695,412.612396 
M560.500000,571.952087 
	C586.465027,571.948303 612.430176,571.973938 638.395081,571.921875 
	C645.671753,571.907227 650.193970,567.766541 650.299072,561.318176 
	C650.405884,554.761719 645.583740,550.186523 638.293274,550.177002 
	C601.509827,550.128784 564.726379,550.109314 527.942932,550.140686 
	C520.754272,550.146790 516.177368,554.438782 516.136902,560.870728 
	C516.094299,567.643616 520.606628,571.899231 528.042480,571.937134 
	C538.528076,571.990601 549.014160,571.951355 560.500000,571.952087 
M471.205902,383.475769 
	C463.352295,383.305511 457.288422,386.251556 453.906860,393.630249 
	C450.891663,400.209503 451.218140,406.570099 455.794830,412.368164 
	C460.891815,418.825378 469.070709,421.023529 476.373260,418.078064 
	C483.742340,415.105774 488.378082,407.567902 487.575409,399.863007 
	C486.673523,391.205719 480.951721,385.217804 471.205902,383.475769 
M487.458954,561.357117 
	C487.377625,553.011597 483.770721,546.922180 475.810730,543.958008 
	C468.747284,541.327759 461.325684,543.305420 456.683624,548.683533 
	C451.495697,554.694031 450.577209,562.959106 454.359009,569.601501 
	C458.170410,576.295837 465.566925,579.806335 472.939087,578.419983 
	C481.044098,576.895874 486.021240,571.292664 487.458954,561.357117 
M474.678802,496.657440 
	C483.236725,493.530121 488.014404,486.834045 487.566895,478.594452 
	C487.132690,470.600464 481.523254,463.746033 474.022552,462.044067 
	C465.921814,460.205963 458.430359,463.355011 454.457367,470.520599 
	C451.031982,476.698456 451.100952,483.079742 454.843170,489.020660 
	C459.229034,495.983276 465.862610,498.262726 474.678802,496.657440 
z"/>
<path fill="#ABD935" opacity="1.000000" stroke="none" 
	d="
M855.236755,557.256958 
	C815.026062,613.181030 781.512573,672.530212 753.559265,735.043213 
	C750.096985,742.786011 744.814026,747.663940 736.181213,747.753662 
	C727.485229,747.844177 722.202698,742.980835 718.783813,735.186096 
	C707.682800,709.876648 696.338013,684.674194 685.076355,659.435303 
	C684.409729,657.941345 683.648865,656.489380 682.532593,654.198425 
	C673.856812,668.492126 665.376465,682.000610 657.372620,695.785767 
	C649.935547,708.594849 642.911743,721.647827 635.888794,734.691833 
	C631.491638,742.858765 625.052429,747.732910 615.641968,747.789429 
	C606.316467,747.845520 600.006958,743.353455 595.204712,735.164551 
	C576.255249,702.851257 556.895447,670.778015 537.573975,638.684204 
	C532.306091,629.933838 533.217957,619.453369 540.247864,613.109436 
	C547.164062,606.868042 557.565613,606.399475 565.105286,612.156860 
	C566.791931,613.444824 568.294678,615.109680 569.508179,616.860229 
	C582.883667,636.155701 596.181580,655.505005 609.515564,674.829224 
	C610.341064,676.025574 611.293274,677.134521 612.320923,678.457092 
	C622.105042,663.873352 631.454163,649.506348 641.258301,635.456970 
	C649.546448,623.579895 658.223999,611.966003 666.982422,600.427979 
	C675.987244,588.565430 691.699097,589.676697 699.272034,602.444946 
	C709.468140,619.636108 719.715271,636.796936 729.956604,653.961243 
	C730.702209,655.210754 731.577881,656.382690 732.614624,657.919128 
	C739.779297,645.670959 746.600464,633.666626 753.743713,621.857056 
	C787.608398,565.870605 826.820801,514.085754 874.237366,468.748260 
	C878.644836,464.533997 883.488098,461.570679 889.625977,461.469971 
	C897.761169,461.336487 904.236511,464.588196 908.112305,471.970612 
	C911.773743,478.944885 910.410095,487.859833 905.496033,494.002441 
	C888.747620,514.937805 872.123169,535.972351 855.236755,557.256958 
z"/>
<path fill="#ACDA36" opacity="1.000000" stroke="none" 
	d="
M437.969391,274.089874 
	C438.713837,274.047516 439.458282,274.005157 440.834320,274.220459 
	C443.891937,274.317017 446.317902,274.016052 448.743988,274.015167 
	C521.004822,273.989410 593.265625,274.013336 665.526428,273.931763 
	C669.010376,273.927826 670.144653,275.007538 670.115051,278.501526 
	C670.056091,285.465698 670.075623,292.471832 670.775757,299.388489 
	C671.375793,305.316223 671.226868,305.993408 665.154175,305.993713 
	C610.042786,305.996460 554.931396,305.992645 499.820038,305.991638 
	C482.837067,305.991333 465.852417,305.874878 448.872955,306.119476 
	C446.245819,306.157318 443.642609,307.855194 441.028320,308.785400 
	C428.111603,313.474152 417.841675,321.230225 412.710510,334.380249 
	C411.044067,338.651001 410.537018,343.374176 409.418457,348.388489 
	C409.337311,348.886597 409.043579,349.008423 408.747070,349.302246 
	C408.301910,350.737671 408.023285,351.879242 408.023041,353.020844 
	C408.000885,459.490265 407.992645,565.959656 408.065887,672.429016 
	C408.067017,674.052307 409.092224,675.674927 409.751831,677.381836 
	C409.923370,677.647095 410.025208,677.799988 410.169678,677.924438 
	C412.731506,697.806885 431.428467,713.718018 452.506836,713.779236 
	C483.477173,713.869202 514.448303,713.933044 545.417908,713.774292 
	C549.618042,713.752808 552.030518,714.920776 553.997314,718.711243 
	C558.948792,728.253662 564.349915,737.562744 570.091370,747.903015 
	C566.978882,747.903015 564.900757,747.903015 562.258667,747.437256 
	C559.807922,746.650635 557.921570,746.052795 556.034363,746.049805 
	C520.057495,745.992981 484.080475,746.020264 448.103577,745.972046 
	C445.806915,745.968994 443.515869,745.354614 441.213318,745.271606 
	C438.090088,745.158936 434.958221,745.284851 431.830078,745.308472 
	C399.981354,736.007629 377.347900,708.366394 375.281311,675.088867 
	C375.755615,672.876099 375.990814,671.396545 375.991089,669.917053 
	C376.009796,564.025085 376.014374,458.133148 375.971924,352.241211 
	C375.971222,350.501190 375.378265,348.761475 375.061707,347.021606 
	C374.703613,317.912537 397.337952,286.944946 426.852783,277.235535 
	C428.279388,277.056702 429.130890,276.591858 429.982361,276.127014 
	C430.417877,276.074799 430.853363,276.022614 431.780640,276.159332 
	C432.843903,275.924133 433.415375,275.500000 433.986847,275.075867 
	C434.418854,275.033173 434.850861,274.990479 435.769348,275.138885 
	C436.827026,274.916595 437.398193,274.503235 437.969391,274.089874 
M408.473145,345.573792 
	C408.473145,345.573792 408.424927,345.481567 408.473145,345.573792 
z"/>
<path fill="#F9F9F9" opacity="1.000000" stroke="none" 
	d="
M227.332489,915.786377 
	C219.364548,893.054077 211.537964,870.689880 203.464081,847.619019 
	C205.706223,847.444580 207.275925,847.222351 208.846329,847.217407 
	C216.009445,847.195007 223.183716,847.476501 230.331680,847.154175 
	C234.274338,846.976379 235.812546,848.515869 236.899353,852.099854 
	C243.601822,874.203064 250.513840,896.242737 257.373413,918.298218 
	C257.791748,919.643311 258.357544,920.942444 259.214539,923.218689 
	C264.704285,906.841431 269.826630,891.467224 275.016083,876.115662 
	C277.839233,867.764099 280.887451,859.487000 283.599762,851.100464 
	C284.506073,848.298096 285.734833,847.029419 288.863739,847.172974 
	C294.682373,847.439819 300.533386,847.500244 306.346924,847.192871 
	C309.902832,847.004883 311.229523,848.449402 312.251465,851.637085 
	C319.673950,874.789001 327.281372,897.881531 334.837067,920.990723 
	C334.988495,921.453857 335.221497,921.890320 335.750214,923.107788 
	C336.409790,921.398315 336.898041,920.301697 337.261810,919.165283 
	C344.465942,896.659729 351.725922,874.171509 358.769897,851.615845 
	C359.788086,848.355530 361.182465,847.071716 364.670288,847.196411 
	C371.990845,847.458130 379.327423,847.253723 386.657135,847.293396 
	C388.074799,847.301086 389.491119,847.549011 391.470306,847.740479 
	C389.073761,854.514709 386.940826,860.743591 384.672119,866.922668 
	C373.840942,896.422302 362.908234,925.884949 352.203461,955.430298 
	C350.929962,958.945190 349.417572,960.521118 345.504486,960.317017 
	C339.191833,959.987854 332.839020,960.045654 326.521484,960.336853 
	C322.735229,960.511353 321.024078,959.225708 319.807068,955.539612 
	C312.656219,933.882019 305.208191,912.322510 297.347351,889.222412 
	C295.614594,893.947449 294.314606,897.381165 293.092926,900.842529 
	C286.612732,919.202515 280.095001,937.549622 273.740051,955.952881 
	C272.657532,959.087891 271.172607,960.464539 267.667358,960.315735 
	C260.849609,960.026367 254.004379,960.069946 247.182938,960.317444 
	C243.884537,960.437134 242.534454,959.105042 241.521744,956.134644 
	C236.963623,942.765442 232.177658,929.473999 227.332489,915.786377 
z"/>
<path fill="#ABD936" opacity="1.000000" stroke="none" 
	d="
M1062.941406,956.979492 
	C1062.408081,984.373962 1045.487183,1003.394348 1017.208557,1007.516541 
	C999.229187,1010.137390 981.581848,1008.451294 965.283813,999.665833 
	C960.508179,997.091492 956.285339,993.431213 952.036011,989.988586 
	C951.112488,989.240295 950.362549,986.654663 950.888367,985.993835 
	C955.729126,979.909302 960.868286,974.062195 966.048828,967.995850 
	C967.527954,969.188538 968.464294,969.844604 969.286560,970.621399 
	C981.458679,982.120972 995.930115,985.753723 1012.186829,983.061279 
	C1025.260620,980.895996 1034.221802,970.986633 1035.027710,957.792297 
	C1035.270386,953.818787 1035.065308,949.817993 1035.065308,945.178955 
	C1032.952515,947.081299 1031.246460,948.759216 1029.397217,950.260742 
	C1006.333008,968.987915 968.391846,961.165100 953.915649,934.232788 
	C943.406433,914.680847 942.733276,894.174561 952.323547,874.149048 
	C960.785339,856.479980 975.415955,846.669800 995.883301,845.266357 
	C999.934082,846.186462 1004.401306,845.674072 1006.305969,847.641907 
	C1009.042603,850.469360 1011.593506,850.981567 1015.002930,851.069702 
	C1017.872620,851.143860 1020.726562,851.825562 1023.572266,852.236145 
	C1022.560181,859.060486 1025.168579,863.030334 1032.098145,863.249146 
	C1037.879883,863.431763 1036.695068,857.710144 1037.088379,854.630005 
	C1039.369507,853.432495 1041.090088,852.463745 1042.867432,851.613892 
	C1044.808228,850.685974 1046.730713,849.476501 1048.790405,849.104492 
	C1051.205566,848.668396 1053.779419,849.201355 1056.249512,848.959106 
	C1060.774048,848.515320 1062.296387,850.778992 1061.983154,854.854309 
	C1061.717529,858.310303 1061.097046,861.753784 1061.047852,865.208740 
	C1060.914673,874.603516 1061.000732,884.001343 1061.000488,893.398010 
	C1061.000000,912.850952 1060.950684,932.304199 1061.084351,951.756165 
	C1061.096436,953.501465 1062.294312,955.238586 1062.941406,956.979492 
M987.353516,875.768494 
	C973.931763,886.667297 970.880920,908.139404 980.826294,922.225464 
	C985.336792,928.613892 991.343506,932.795166 999.204590,934.038940 
	C1020.862976,937.465820 1036.884644,922.187683 1035.343384,899.571411 
	C1033.669556,875.011230 1008.764160,862.279114 987.353516,875.768494 
z"/>
<path fill="#F9F9F9" opacity="1.000000" stroke="none" 
	d="
M659.663025,828.000366 
	C659.665222,849.491028 659.665222,870.481628 659.665222,891.472290 
	C659.993652,891.740051 660.322021,892.007751 660.650452,892.275513 
	C662.221069,890.483704 663.711914,888.613953 665.375122,886.912537 
	C677.487915,874.520935 689.605530,862.133545 701.818726,849.841309 
	C703.001709,848.650757 704.830322,847.420837 706.383545,847.388855 
	C716.876770,847.172363 727.376587,847.262939 737.874084,847.300232 
	C738.475464,847.302368 739.075378,847.708801 739.619019,847.906372 
	C724.275391,863.092407 709.020386,878.190796 693.645569,893.407715 
	C710.760864,916.133484 726.839417,937.482605 743.572021,959.700256 
	C741.086487,959.943542 739.701782,960.188293 738.315552,960.196899 
	C729.650940,960.250793 720.983276,960.133972 712.322449,960.330200 
	C709.008423,960.405273 706.892639,959.360962 704.888245,956.598450 
	C694.620117,942.446655 684.109497,928.470764 673.257690,913.859924 
	C668.867615,918.080811 664.507324,922.072449 660.443909,926.346191 
	C659.613770,927.219299 659.709839,929.150269 659.699402,930.595947 
	C659.640503,938.760498 659.547852,946.929016 659.743530,955.089478 
	C659.833496,958.841187 658.852478,960.555420 654.695557,960.370850 
	C647.543762,960.053223 640.366394,960.134644 633.204956,960.289734 
	C629.894226,960.361450 628.903015,959.078003 628.907349,955.871521 
	C628.974731,906.047607 628.974915,856.223572 628.891785,806.399780 
	C628.886169,803.041199 630.158691,802.077942 633.316589,802.137329 
	C640.645569,802.275146 647.983337,802.284973 655.309692,802.074402 
	C658.681030,801.977539 659.724426,803.416504 659.688721,806.504150 
	C659.607788,813.502075 659.661743,820.501465 659.663025,828.000366 
z"/>
<path fill="#FAF9F9" opacity="1.000000" stroke="none" 
	d="
M398.228821,920.732422 
	C392.714233,896.876282 396.726410,875.817017 415.249451,859.310608 
	C441.148224,836.231445 487.106079,840.458557 507.650208,866.973633 
	C530.085449,895.929504 521.988220,953.763184 468.371124,961.707458 
	C446.485718,964.950134 426.609589,960.260376 410.746704,943.608582 
	C404.648468,937.207031 400.753906,929.568054 398.228821,920.732422 
M488.038330,912.195129 
	C488.284607,910.549683 488.597870,908.911072 488.766632,907.257690 
	C490.227020,892.951050 484.063538,880.040039 473.001678,874.173279 
	C459.649323,867.091736 442.375305,870.186157 433.476776,881.253723 
	C423.628632,893.502197 423.546936,914.170837 433.502106,925.758606 
	C441.613251,935.200073 452.114105,938.359009 464.114136,935.982178 
	C476.818176,933.466003 484.321564,925.189026 488.038330,912.195129 
z"/>
<path fill="#ACD936" opacity="1.000000" stroke="none" 
	d="
M823.599609,944.399414 
	C803.255676,920.947388 802.602417,887.511475 822.232544,864.579346 
	C833.193726,851.774414 847.802185,845.559204 864.389587,844.588135 
	C886.776550,843.277649 906.257690,849.674316 920.140137,868.399780 
	C942.582642,898.671692 931.283203,955.081421 879.472229,961.833740 
	C858.466614,964.571289 839.387024,960.084412 823.599609,944.399414 
M889.405090,929.963074 
	C894.558411,925.652100 897.893250,920.156982 899.501526,913.700073 
	C902.621887,901.172546 901.309204,889.262329 892.003723,879.743286 
	C883.288696,870.828247 872.163696,868.454224 860.214355,871.786987 
	C846.776306,875.534973 839.975159,885.320129 838.355530,898.641296 
	C836.690857,912.333130 840.422546,924.526611 852.682556,931.950867 
	C864.653564,939.200317 877.105042,938.503662 889.405090,929.963074 
z"/>
<path fill="#ACD936" opacity="1.000000" stroke="none" 
	d="
M690.401672,285.257568 
	C690.409668,283.006775 690.409668,281.217621 690.409668,280.309235 
	C725.989929,315.198547 761.846558,350.358887 797.703186,385.519226 
	C797.520264,385.913361 797.337341,386.307465 797.154419,386.701599 
	C794.213623,386.701599 791.272766,386.703064 788.331970,386.701355 
	C770.000122,386.690735 751.667969,386.735718 733.336426,386.654541 
	C708.432800,386.544250 690.406982,368.527863 690.355469,343.713806 
	C690.315369,324.382416 690.377136,305.050781 690.401672,285.257568 
z"/>
<path fill="#F7F7F7" opacity="1.000000" stroke="none" 
	d="
M583.674194,877.405884 
	C573.455688,883.840881 570.001038,893.406860 569.883118,904.454590 
	C569.703552,921.280151 569.674072,938.110291 569.871460,954.934998 
	C569.921082,959.166504 568.567139,960.471619 564.425537,960.300354 
	C557.607178,960.018494 550.765137,960.148438 543.937988,960.312805 
	C540.893982,960.385986 539.385986,959.705017 539.396973,956.204163 
	C539.506653,921.217163 539.505920,886.229736 539.450562,851.242554 
	C539.445740,848.191284 540.552368,847.129333 543.564636,847.197815 
	C550.725403,847.360901 557.896484,847.446106 565.053650,847.235168 
	C568.730225,847.126953 569.681152,848.688232 569.500183,852.003418 
	C569.304626,855.584229 569.455872,859.183960 569.455872,864.254150 
	C576.026611,854.033508 583.776062,847.739746 594.416077,845.550354 
	C594.742065,845.483276 595.061951,845.385010 595.389099,845.325806 
	C608.984985,842.868835 610.970459,844.455933 611.009338,857.820984 
	C611.022400,862.319275 610.980225,866.818115 611.043762,871.315613 
	C611.088074,874.455261 610.029663,875.374634 606.763794,874.480591 
	C598.878479,872.322144 591.261047,873.588318 583.674194,877.405884 
z"/>
<path fill="#AAD934" opacity="1.000000" stroke="none" 
	d="
M771.987793,960.050659 
	C769.619141,960.106384 767.250549,960.162048 764.367554,959.756592 
	C762.902100,957.064148 761.129456,954.835815 761.121277,952.601135 
	C760.958923,907.881714 761.051758,863.161499 760.915161,818.441956 
	C760.902344,814.240112 764.345703,810.080566 761.167053,805.788147 
	C761.098694,805.695801 762.367371,804.613281 763.479736,803.990845 
	C768.684387,803.987732 773.427063,804.123779 778.156799,803.935242 
	C781.143799,803.816040 784.111450,803.212036 787.087769,802.825562 
	C787.401733,803.054199 787.715637,803.282776 788.149780,804.232483 
	C788.255554,856.296387 788.241089,907.639221 788.226685,958.982056 
	C786.099670,959.392151 783.972717,959.802307 781.333740,959.740234 
	C777.716675,957.718140 774.631897,956.397705 771.987793,960.050659 
z"/>
<path fill="#F6F6F6" opacity="1.000000" stroke="none" 
	d="
M669.144104,468.740540 
	C675.807678,471.483704 678.879944,475.949005 677.919678,481.494934 
	C676.881165,487.492584 672.555054,490.652740 664.999512,490.656860 
	C619.500244,490.681702 574.000916,490.680695 528.501648,490.640228 
	C521.564087,490.634064 517.362854,487.507355 516.308472,481.920563 
	C515.190857,475.998718 517.970642,471.666382 525.340332,468.924255 
	C573.774292,468.804779 621.459229,468.772675 669.144104,468.740540 
z"/>
<path fill="#F6F6F6" opacity="1.000000" stroke="none" 
	d="
M606.999634,412.612671 
	C580.679260,412.624664 554.858887,412.669067 529.038635,412.628448 
	C521.098938,412.615967 516.549805,408.877319 516.183044,402.383972 
	C515.792908,395.479431 520.187927,390.979156 527.595154,390.962646 
	C551.416443,390.909607 575.237915,390.925446 599.059326,390.929138 
	C621.214905,390.932587 643.370483,390.936707 665.526001,390.978119 
	C673.188293,390.992462 677.920776,395.037384 678.021973,401.512238 
	C678.127441,408.257782 673.400024,412.531494 665.470764,412.561615 
	C646.147278,412.634888 626.823425,412.602325 606.999634,412.612671 
z"/>
<path fill="#ABD935" opacity="1.000000" stroke="none" 
	d="
M797.011475,520.017883 
	C793.209839,524.901794 789.408264,529.785706 784.966309,534.882202 
	C783.552734,536.398560 782.779602,537.702209 782.006470,539.005859 
	C782.006470,539.005859 782.000000,539.000000 781.616943,539.000244 
	C776.460449,538.063110 772.004150,532.965515 772.002136,528.411072 
	C771.996216,514.924438 771.962280,501.437561 772.042114,487.951355 
	C772.053650,486.006287 772.713318,484.073517 772.924561,482.118988 
	C773.184082,479.717926 773.517700,477.289520 773.408691,474.891602 
	C773.204956,470.406677 772.323303,465.925964 772.431458,461.460602 
	C772.550537,456.544220 775.654358,451.808380 773.121948,446.644592 
	C772.666687,445.716370 773.089844,443.686646 773.858887,442.948639 
	C776.691650,440.230408 776.336060,437.166901 774.966675,434.228333 
	C772.571777,429.089081 772.564636,424.689819 777.882080,421.690918 
	C775.803833,417.171295 775.997192,413.620911 778.583923,411.289185 
	C779.410828,410.543793 781.131836,410.044006 782.075989,410.401917 
	C782.888306,410.709869 783.673767,412.435211 783.597900,413.469879 
	C783.418396,415.920074 782.300293,418.340546 782.347839,420.757599 
	C782.396973,423.257019 783.263916,425.775391 784.076355,428.183197 
	C784.185364,428.506134 786.931458,428.448212 786.994568,428.197937 
	C787.547241,426.006897 787.800842,423.736084 788.078125,421.480927 
	C788.428101,418.634186 787.018127,413.721924 792.877441,417.607880 
	C793.346619,417.919006 794.471375,417.532440 795.150635,417.190338 
	C801.041260,414.223297 801.993896,414.808136 801.996765,421.585480 
	C802.005676,442.398193 802.219055,463.214752 801.855896,484.021149 
	C801.757019,489.682159 799.903870,495.312531 798.855835,500.956970 
	C798.026611,501.326172 797.197388,501.695374 796.368225,502.064575 
	C796.084900,500.693298 795.801575,499.322021 795.395142,497.354767 
	C794.009521,500.178253 792.679871,501.732513 792.599976,503.348572 
	C792.504333,505.284027 793.188538,508.839905 794.029541,508.993958 
	C802.037659,510.461029 799.593750,514.638184 797.050598,519.029846 
	C796.904480,519.282166 797.018494,519.685059 797.011475,520.017883 
M795.135742,491.422333 
	C792.558960,491.290253 792.558960,491.290253 794.396240,496.782288 
	C794.928650,494.381042 795.191345,493.196106 795.135742,491.422333 
z"/>
<path fill="#F6F6F6" opacity="1.000000" stroke="none" 
	d="
M560.000000,571.951904 
	C549.014160,571.951355 538.528076,571.990601 528.042480,571.937134 
	C520.606628,571.899231 516.094299,567.643616 516.136902,560.870728 
	C516.177368,554.438782 520.754272,550.146790 527.942932,550.140686 
	C564.726379,550.109314 601.509827,550.128784 638.293274,550.177002 
	C645.583740,550.186523 650.405884,554.761719 650.299072,561.318176 
	C650.193970,567.766541 645.671753,571.907227 638.395081,571.921875 
	C612.430176,571.973938 586.465027,571.948303 560.000000,571.951904 
z"/>
<path fill="#ABD936" opacity="1.000000" stroke="none" 
	d="
M797.298584,519.853027 
	C797.018494,519.685059 796.904480,519.282166 797.050598,519.029846 
	C799.593750,514.638184 802.037659,510.461029 794.029541,508.993958 
	C793.188538,508.839905 792.504333,505.284027 792.599976,503.348572 
	C792.679871,501.732513 794.009521,500.178253 795.395142,497.354767 
	C795.801575,499.322021 796.084900,500.693298 796.368225,502.064575 
	C797.197388,501.695374 798.026611,501.326172 798.855835,500.956970 
	C799.903870,495.312531 801.757019,489.682159 801.855896,484.021149 
	C802.219055,463.214752 802.005676,442.398193 801.996765,421.585480 
	C801.993896,414.808136 801.041260,414.223297 795.150635,417.190338 
	C794.471375,417.532440 793.346619,417.919006 792.877441,417.607880 
	C787.018127,413.721924 788.428101,418.634186 788.078125,421.480927 
	C787.800842,423.736084 787.547241,426.006897 786.994568,428.197937 
	C786.931458,428.448212 784.185364,428.506134 784.076355,428.183197 
	C783.263916,425.775391 782.396973,423.257019 782.347839,420.757599 
	C782.300293,418.340546 783.418396,415.920074 783.597900,413.469879 
	C783.673767,412.435211 782.888306,410.709869 782.075989,410.401917 
	C781.131836,410.044006 779.410828,410.543793 778.583923,411.289185 
	C775.997192,413.620911 775.803833,417.171295 777.882080,421.690918 
	C772.564636,424.689819 772.571777,429.089081 774.966675,434.228333 
	C776.336060,437.166901 776.691650,440.230408 773.858887,442.948639 
	C773.089844,443.686646 772.666687,445.716370 773.121948,446.644592 
	C775.654358,451.808380 772.550537,456.544220 772.431458,461.460602 
	C772.323303,465.925964 773.204956,470.406677 773.408691,474.891602 
	C773.517700,477.289520 773.184082,479.717926 772.924561,482.118988 
	C772.713318,484.073517 772.053650,486.006287 772.042114,487.951355 
	C771.962280,501.437561 771.996216,514.924438 772.002136,528.411072 
	C772.004150,532.965515 776.460449,538.063110 781.620056,539.003296 
	C780.915039,540.588318 779.823853,542.170471 778.146606,543.707275 
	C775.962463,543.267578 774.364380,542.873230 772.766235,542.478882 
	C772.545898,544.096130 772.325623,545.713379 772.031067,547.875427 
	C774.399048,546.675781 775.909729,545.910461 777.420410,545.145081 
	C775.056458,548.525940 772.692505,551.906799 769.612549,556.311707 
	C769.612549,504.541168 769.612549,453.946960 769.612549,403.016174 
	C780.892761,403.016174 792.282837,403.016174 803.961914,403.016174 
	C803.961914,438.836090 803.961914,474.465851 803.760132,510.647064 
	C803.360840,511.501862 803.426331,511.756317 803.754822,511.961945 
	C801.698486,514.537415 799.642090,517.112793 797.298584,519.853027 
z"/>
<path fill="#ACD936" opacity="1.000000" stroke="none" 
	d="
M471.607452,383.524170 
	C480.951721,385.217804 486.673523,391.205719 487.575409,399.863007 
	C488.378082,407.567902 483.742340,415.105774 476.373260,418.078064 
	C469.070709,421.023529 460.891815,418.825378 455.794830,412.368164 
	C451.218140,406.570099 450.891663,400.209503 453.906860,393.630249 
	C457.288422,386.251556 463.352295,383.305511 471.607452,383.524170 
z"/>
<path fill="#ABD936" opacity="1.000000" stroke="none" 
	d="
M487.425232,561.753418 
	C486.021240,571.292664 481.044098,576.895874 472.939087,578.419983 
	C465.566925,579.806335 458.170410,576.295837 454.359009,569.601501 
	C450.577209,562.959106 451.495697,554.694031 456.683624,548.683533 
	C461.325684,543.305420 468.747284,541.327759 475.810730,543.958008 
	C483.770721,546.922180 487.377625,553.011597 487.425232,561.753418 
z"/>
<path fill="#ABD936" opacity="1.000000" stroke="none" 
	d="
M474.268127,496.763367 
	C465.862610,498.262726 459.229034,495.983276 454.843170,489.020660 
	C451.100952,483.079742 451.031982,476.698456 454.457367,470.520599 
	C458.430359,463.355011 465.921814,460.205963 474.022552,462.044067 
	C481.523254,463.746033 487.132690,470.600464 487.566895,478.594452 
	C488.014404,486.834045 483.236725,493.530121 474.268127,496.763367 
z"/>
<path fill="#C0ED3A" opacity="1.000000" stroke="none" 
	d="
M441.419373,308.780701 
	C443.642609,307.855194 446.245819,306.157318 448.872955,306.119476 
	C465.852417,305.874878 482.837067,305.991333 499.820038,305.991638 
	C554.931396,305.992645 610.042786,305.996460 665.154175,305.993713 
	C671.226868,305.993408 671.375793,305.316223 670.775757,299.388489 
	C670.075623,292.471832 670.056091,285.465698 670.115051,278.501526 
	C670.144653,275.007538 669.010376,273.927826 665.526428,273.931763 
	C593.265625,274.013336 521.004822,273.989410 448.743988,274.015167 
	C446.317902,274.016052 443.891937,274.317017 441.205994,274.188171 
	C444.111084,273.316925 447.275543,272.231964 450.441284,272.228180 
	C523.655396,272.140869 596.869629,272.171051 670.693115,272.411072 
	C671.541382,272.836884 671.814819,272.939270 672.122620,272.949890 
	C672.311279,283.888306 672.499878,294.826752 672.396729,306.321350 
	C671.725037,307.083527 671.345093,307.289551 670.500977,307.460999 
	C598.665283,307.428345 527.293762,307.424164 455.922272,307.456268 
	C453.280426,307.457458 450.638672,307.812927 447.996887,308.003296 
	C445.934723,308.260834 443.872559,308.518402 441.419373,308.780701 
z"/>
<path fill="#010110" opacity="1.000000" stroke="none" 
	d="
M409.043579,349.008423 
	C409.043579,349.008423 409.337311,348.886597 409.478455,348.813782 
	C410.078094,350.251556 410.937012,351.761871 410.937897,353.272736 
	C411.000854,460.458618 410.996124,567.644531 410.982300,674.830444 
	C410.982208,675.648315 410.781067,676.466125 410.421753,677.604248 
	C410.025208,677.799988 409.923370,677.647095 409.802979,676.995728 
	C409.566010,674.039429 409.237244,671.553223 409.236633,669.066956 
	C409.217987,593.668030 409.251373,518.269165 409.230804,442.870270 
	C409.222290,411.582977 409.109131,380.295715 409.043579,349.008423 
z"/>
<path fill="#ACDA36" opacity="1.000000" stroke="none" 
	d="
M1063.044189,956.591553 
	C1062.294312,955.238586 1061.096436,953.501465 1061.084351,951.756165 
	C1060.950684,932.304199 1061.000000,912.850952 1061.000488,893.398010 
	C1061.000732,884.001343 1060.914673,874.603516 1061.047852,865.208740 
	C1061.097046,861.753784 1061.717529,858.310303 1061.983154,854.854309 
	C1062.296387,850.778992 1060.774048,848.515320 1056.249512,848.959106 
	C1053.779419,849.201355 1051.205566,848.668396 1048.790405,849.104492 
	C1046.730713,849.476501 1044.808228,850.685974 1042.867432,851.613892 
	C1041.090088,852.463745 1039.369507,853.432495 1037.088379,854.630005 
	C1036.695068,857.710144 1037.879883,863.431763 1032.098145,863.249146 
	C1025.168579,863.030334 1022.560181,859.060486 1023.572266,852.236145 
	C1020.726562,851.825562 1017.872620,851.143860 1015.002930,851.069702 
	C1011.593506,850.981567 1009.042603,850.469360 1006.305969,847.641907 
	C1004.401306,845.674072 999.934082,846.186462 996.315308,845.318115 
	C1011.054321,843.408203 1023.799683,848.163147 1034.849731,859.675171 
	C1034.991333,857.786682 1035.108398,856.721130 1035.145386,855.652832 
	C1035.436890,847.235046 1035.432251,847.222717 1043.656738,847.225037 
	C1048.488892,847.226440 1053.333740,847.498291 1058.149292,847.229248 
	C1062.001587,847.013916 1063.374390,848.148315 1063.352417,852.226624 
	C1063.165527,886.884949 1063.187500,921.544495 1063.044189,956.591553 
z"/>
<path fill="#ABD936" opacity="1.000000" stroke="none" 
	d="
M763.012329,803.992676 
	C762.367371,804.613281 761.098694,805.695801 761.167053,805.788147 
	C764.345703,810.080566 760.902344,814.240112 760.915161,818.441956 
	C761.051758,863.161499 760.958923,907.881714 761.121277,952.601135 
	C761.129456,954.835815 762.902100,957.064148 763.931519,959.667297 
	C760.467773,960.799255 757.972656,960.791138 757.985962,955.782166 
	C758.117554,906.355591 758.072021,856.928589 758.075073,807.501709 
	C758.075256,804.636536 757.613586,801.426575 762.633789,802.505737 
	C763.032837,803.255127 763.022644,803.623962 763.012329,803.992676 
z"/>
<path fill="#010110" opacity="1.000000" stroke="none" 
	d="
M448.301941,308.287598 
	C450.638672,307.812927 453.280426,307.457458 455.922272,307.456268 
	C527.293762,307.424164 598.665283,307.428345 670.702393,307.641510 
	C671.906738,307.884491 672.445496,307.912384 672.984253,307.940277 
	C671.430115,308.293518 669.876160,308.954681 668.321716,308.955780 
	C596.392761,309.006378 524.463684,309.001740 452.534668,308.981445 
	C451.225403,308.981079 449.916229,308.714325 448.301941,308.287598 
z"/>
<path fill="#C0ED3A" opacity="1.000000" stroke="none" 
	d="
M374.976807,347.482117 
	C375.378265,348.761475 375.971222,350.501190 375.971924,352.241211 
	C376.014374,458.133148 376.009796,564.025085 375.991089,669.917053 
	C375.990814,671.396545 375.755615,672.876099 375.352844,674.662354 
	C374.996429,655.668823 374.850983,636.368652 374.849335,617.068420 
	C374.841736,527.359802 374.873932,437.651215 374.976807,347.482117 
z"/>
<path fill="#010110" opacity="1.000000" stroke="none" 
	d="
M788.596680,958.856873 
	C788.241089,907.639221 788.255554,856.296387 788.312378,804.488037 
	C788.899109,805.421204 789.916992,806.819092 789.919434,808.218811 
	C790.004578,857.017273 790.002441,905.815796 789.953918,954.614319 
	C789.952515,955.987122 789.310242,957.359253 788.596680,958.856873 
z"/>
<path fill="#C0ED3A" opacity="1.000000" stroke="none" 
	d="
M432.110229,745.583130 
	C434.958221,745.284851 438.090088,745.158936 441.213318,745.271606 
	C443.515869,745.354614 445.806915,745.968994 448.103577,745.972046 
	C484.080475,746.020264 520.057495,745.992981 556.034363,746.049805 
	C557.921570,746.052795 559.807922,746.650635 561.827026,747.331543 
	C532.672791,747.768005 503.386017,747.928711 474.099609,747.879211 
	C462.628082,747.859863 451.155365,747.429199 439.687897,747.045166 
	C437.244873,746.963318 434.822327,746.269653 432.110229,745.583130 
z"/>
<path fill="#010110" opacity="1.000000" stroke="none" 
	d="
M668.927124,468.337738 
	C621.459229,468.772675 573.774292,468.804779 525.636719,468.775635 
	C526.568848,468.145752 527.952759,467.082855 529.338745,467.080170 
	C574.553406,466.992523 619.768127,466.999359 664.982849,467.044861 
	C666.225525,467.046112 667.467712,467.625275 668.927124,468.337738 
z"/>
<path fill="#C0ED3A" opacity="1.000000" stroke="none" 
	d="
M763.479736,803.990906 
	C763.022644,803.623962 763.032837,803.255127 763.041077,802.609436 
	C770.836548,802.321533 778.633911,802.310547 786.759521,802.562561 
	C784.111450,803.212036 781.143799,803.816040 778.156799,803.935242 
	C773.427063,804.123779 768.684387,803.987732 763.479736,803.990906 
z"/>
<path fill="#ABD936" opacity="1.000000" stroke="none" 
	d="
M772.344727,960.169861 
	C774.631897,956.397705 777.716675,957.718140 780.915283,959.651489 
	C778.239746,960.119629 775.470703,960.204346 772.344727,960.169861 
z"/>
<path fill="#ABD935" opacity="1.000000" stroke="none" 
	d="
M777.619019,545.031250 
	C775.909729,545.910461 774.399048,546.675781 772.031067,547.875427 
	C772.325623,545.713379 772.545898,544.096130 772.766235,542.478882 
	C774.364380,542.873230 775.962463,543.267578 777.873108,543.878357 
	C778.163513,544.414001 778.040833,544.688232 777.619019,545.031250 
z"/>
<path fill="#ABD936" opacity="1.000000" stroke="none" 
	d="
M782.275818,538.836914 
	C782.779602,537.702209 783.552734,536.398560 784.683350,535.057129 
	C784.208984,536.235535 783.377075,537.451782 782.275818,538.836914 
z"/>
<path fill="#C0ED3A" opacity="1.000000" stroke="none" 
	d="
M429.665375,276.037659 
	C429.130890,276.591858 428.279388,277.056702 427.227661,277.287140 
	C427.801056,276.684570 428.574738,276.316437 429.665375,276.037659 
z"/>
<path fill="#C0ED3A" opacity="1.000000" stroke="none" 
	d="
M437.791626,273.961731 
	C437.398193,274.503235 436.827026,274.916595 436.092438,275.098083 
	C436.490631,274.521973 437.052246,274.177795 437.791626,273.961731 
z"/>
<path fill="#C0ED3A" opacity="1.000000" stroke="none" 
	d="
M433.688202,274.948669 
	C433.415375,275.500000 432.843903,275.924133 432.107605,276.118988 
	C432.425079,275.533630 432.907318,275.177551 433.688202,274.948669 
z"/>
<path fill="#3F5024" opacity="1.000000" stroke="none" 
	d="
M672.944580,307.614075 
	C672.445496,307.912384 671.906738,307.884491 671.166565,307.676086 
	C671.345093,307.289551 671.725037,307.083527 672.410278,306.768066 
	C672.778748,306.868378 672.841858,307.078156 672.944580,307.614075 
z"/>
<path fill="#ABD935" opacity="1.000000" stroke="none" 
	d="
M803.846924,511.733582 
	C803.426331,511.756317 803.360840,511.501862 803.690186,511.112762 
	C803.822021,511.026978 803.938965,511.505249 803.846924,511.733582 
z"/>
<path fill="#AAD934" opacity="1.000000" stroke="none" 
	d="
M672.059387,272.690552 
	C671.814819,272.939270 671.541382,272.836884 671.158813,272.473267 
	C671.342224,272.346313 671.669189,272.388763 672.059387,272.690552 
z"/>
<path fill="#C0ED3A" opacity="1.000000" stroke="none" 
	d="
M408.747070,349.302246 
	C409.109131,380.295715 409.222290,411.582977 409.230804,442.870270 
	C409.251373,518.269165 409.217987,593.668030 409.236633,669.066956 
	C409.237244,671.553223 409.566010,674.039429 409.690674,676.911743 
	C409.092224,675.674927 408.067017,674.052307 408.065887,672.429016 
	C407.992645,565.959656 408.000885,459.490265 408.023041,353.020844 
	C408.023285,351.879242 408.301910,350.737671 408.747070,349.302246 
z"/>
<path fill="#C0ED3A" opacity="1.000000" stroke="none" 
	d="
M408.449036,345.527679 
	C408.424927,345.481567 408.473145,345.573792 408.449036,345.527679 
z"/>
<path fill="#101117" opacity="1.000000" stroke="none" 
	d="
M987.645935,875.552795 
	C1008.764160,862.279114 1033.669556,875.011230 1035.343384,899.571411 
	C1036.884644,922.187683 1020.862976,937.465820 999.204590,934.038940 
	C991.343506,932.795166 985.336792,928.613892 980.826294,922.225464 
	C970.880920,908.139404 973.931763,886.667297 987.645935,875.552795 
z"/>
<path fill="#12121A" opacity="1.000000" stroke="none" 
	d="
M487.950928,912.600891 
	C484.321564,925.189026 476.818176,933.466003 464.114136,935.982178 
	C452.114105,938.359009 441.613251,935.200073 433.502106,925.758606 
	C423.546936,914.170837 423.628632,893.502197 433.476776,881.253723 
	C442.375305,870.186157 459.649323,867.091736 473.001678,874.173279 
	C484.063538,880.040039 490.227020,892.951050 488.766632,907.257690 
	C488.597870,908.911072 488.284607,910.549683 487.950928,912.600891 
z"/>
<path fill="#101117" opacity="1.000000" stroke="none" 
	d="
M889.120117,930.186829 
	C877.105042,938.503662 864.653564,939.200317 852.682556,931.950867 
	C840.422546,924.526611 836.690857,912.333130 838.355530,898.641296 
	C839.975159,885.320129 846.776306,875.534973 860.214355,871.786987 
	C872.163696,868.454224 883.288696,870.828247 892.003723,879.743286 
	C901.309204,889.262329 902.621887,901.172546 899.501526,913.700073 
	C897.893250,920.156982 894.558411,925.652100 889.120117,930.186829 
z"/>
<path fill="#ABD936" opacity="1.000000" stroke="none" 
	d="
M795.294922,491.716736 
	C795.191345,493.196106 794.928650,494.381042 794.396240,496.782288 
	C792.558960,491.290253 792.558960,491.290253 795.294922,491.716736 
z"/>
</svg>